HIERARCHY
ROOT Hips
{
	OFFSET 0.000000 0.000000 0.000000
	CHANNELS 6 Xposition Yposition Zposition Xrotation Yrotation Zrotation
	JOINT LeftUpLeg_virtual
	{
		OFFSET 0.000000 0.000000 0.000000
		CHANNELS 3 Xrotation Yrotation Zrotation
		JOINT LeftUpLeg
		{
			OFFSET 10.205400 -3.823500 0.155100
			CHANNELS 3 Xrotation Yrotation Zrotation
			JOINT LeftLeg
			{
				OFFSET 0.708757 -12.982077 0.567790
				CHANNELS 3 Xrotation Yrotation Zrotation
				JOINT LeftFoot
				{
					OFFSET -0.708756 -10.717838 -2.184338
					CHANNELS 3 Xrotation Yrotation Zrotation
					JOINT LeftToeBase
					{
						OFFSET 0.108149 -7.191104 7.560241
						CHANNELS 3 Xrotation Yrotation Zrotation
						JOINT LeftToe_End
						{
							OFFSET 0.070230 0.081724 4.490308
							CHANNELS 3 Xrotation Yrotation Zrotation
							End Site
							{
								OFFSET 0 0 0
							}
						}
					}
				}
			}
		}
	}
	JOINT RightUpLeg_virtual
	{
		OFFSET 0.000000 0.000000 0.000000
		CHANNELS 3 Xrotation Yrotation Zrotation
		JOINT RightUpLeg
		{
			OFFSET -10.205400 -3.823500 0.005500
			CHANNELS 3 Xrotation Yrotation Zrotation
			JOINT RightLeg
			{
				OFFSET -0.708756 -12.982134 0.610632
				CHANNELS 3 Xrotation Yrotation Zrotation
				JOINT RightFoot
				{
					OFFSET 0.708754 -10.717769 -1.945823
					CHANNELS 3 Xrotation Yrotation Zrotation
					JOINT RightToeBase
					{
						OFFSET -0.108140 -7.191069 7.372968
						CHANNELS 3 Xrotation Yrotation Zrotation
						JOINT RightToe_End
						{
							OFFSET -0.070227 0.081735 4.479403
							CHANNELS 3 Xrotation Yrotation Zrotation
							End Site
							{
								OFFSET 0 0 0
							}
						}
					}
				}
			}
		}
	}
	JOINT Spine_virtual
	{
		OFFSET 0.000000 0.000000 0.000000
		CHANNELS 3 Xrotation Yrotation Zrotation
		JOINT Spine
		{
			OFFSET 0.000000 6.876099 0.125700
			CHANNELS 3 Xrotation Yrotation Zrotation
			JOINT Spine1
			{
				OFFSET 0.000000 5.730043 0.104720
				CHANNELS 3 Xrotation Yrotation Zrotation
				JOINT Spine1_split
				{
					OFFSET 0.000000 5.730043 0.104720
					CHANNELS 3 Xrotation Yrotation Zrotation
					JOINT Spine2
					{
						OFFSET 0.000000 5.730043 0.104720
						CHANNELS 3 Xrotation Yrotation Zrotation
						JOINT Neck_virtual
						{
							OFFSET 0.000000 0.000000 0.000000
							CHANNELS 3 Xrotation Yrotation Zrotation
							JOINT Neck
							{
								OFFSET 0.000000 10.314075 0.188496
								CHANNELS 3 Xrotation Yrotation Zrotation
								JOINT Head
								{
									OFFSET 0.000000 7.643700 -2.377400
									CHANNELS 3 Xrotation Yrotation Zrotation
									JOINT HeadTop_End
									{
										OFFSET 0.000000 43.788605 -13.619600
										CHANNELS 3 Xrotation Yrotation Zrotation
										End Site
										{
											OFFSET 0 0 0
										}
									}
								}
							}
						}
						JOINT LeftShoulder_virtual
						{
							OFFSET 0.000000 0.000000 0.000000
							CHANNELS 3 Xrotation Yrotation Zrotation
							JOINT LeftShoulder
							{
								OFFSET 2.196100 4.412489 0.087492
								CHANNELS 3 Xrotation Yrotation Zrotation
								JOINT LeftShoulder_split
								{
									OFFSET 2.196100 4.412489 0.087492
									CHANNELS 3 Xrotation Yrotation Zrotation
									JOINT LeftArm
									{
										OFFSET 8.771219 -2.981674 -0.026999
										CHANNELS 3 Xrotation Yrotation Zrotation
										JOINT LeftForeArm
										{
											OFFSET 8.512804 0.000000 -0.000000
											CHANNELS 3 Xrotation Yrotation Zrotation
											JOINT LeftHand
											{
												OFFSET 18.484802 0.000000 -0.000000
												CHANNELS 3 Xrotation Yrotation Zrotation
												End Site
												{
													OFFSET 0 0 0
												}
											}
										}
									}
								}
							}
						}
						JOINT RightShoulder_virtual
						{
							OFFSET 0.000000 0.000000 0.000000
							CHANNELS 3 Xrotation Yrotation Zrotation
							JOINT RightShoulder
							{
								OFFSET -2.196100 4.412496 0.070690
								CHANNELS 3 Xrotation Yrotation Zrotation
								JOINT RightShoulder_split
								{
									OFFSET -2.196100 4.412496 0.070690
									CHANNELS 3 Xrotation Yrotation Zrotation
									JOINT RightArm
									{
										OFFSET -8.771282 -2.981682 -0.094208
										CHANNELS 3 Xrotation Yrotation Zrotation
										JOINT RightForeArm
										{
											OFFSET -8.494598 0.000000 0.000000
											CHANNELS 3 Xrotation Yrotation Zrotation
											JOINT RightHand
											{
												OFFSET -18.483803 0.000000 0.000001
												CHANNELS 3 Xrotation Yrotation Zrotation
												End Site
												{
													OFFSET 0 0 0
												}
											}
										}
									}
								}
							}
						}
					}
				}
			}
		}
	}
}
MOTION
Frames: 4
Frame Time: 0.03333333
-0.549224 32.944382 0.526052 0.000000 0.000000 0.000000 5.023450 -12.055785 0.174858 -14.981434 9.196041 16.167736 21.609605 3.979162 -0.183711 -7.800943 7.260731 -14.855482 0.300034 -1.834580 -4.857676 0.000000 0.000000 0.000000 5.081894 -11.678865 0.407414 -0.027064 -8.275238 -10.323874 10.889967 -3.057674 -0.055407 -20.600878 -1.092761 10.301681 -6.428020 2.085422 3.279314 0.000000 0.000000 0.000000 5.686814 -9.431481 0.208405 10.023086 -0.570913 0.119371 1.974121 3.757309 0.005066 0.118165 -1.889049 0.414745 0.000000 0.000000 0.000000 -8.736649 2.377179 1.309553 -8.695731 5.723605 -6.216488 9.671415 -4.492803 13.739474 0.000000 0.000000 0.000000 -9.186860 2.343633 1.020788 -1.076928 5.793136 -4.588393 1.653412 -2.569579 -0.511476 -5.833132 -0.799596 -68.551774 -0.074640 -18.941163 -0.234081 0.000000 0.000000 0.000000 -8.960511 2.037041 0.965548 -1.532894 0.106160 5.622172 -3.367402 -3.187745 -0.576445 7.604736 10.720872 71.142854 -1.335603 23.409917 2.742353 0.000000 0.000000 0.000000 
-0.282752 32.858788 0.501978 0.000000 0.000000 0.000000 5.085594 -12.383690 0.297875 -14.972372 9.210891 15.791763 21.760126 4.023973 -0.263503 -8.277949 7.313983 -14.763539 0.243984 -1.859648 -4.637307 0.000000 0.000000 0.000000 5.107633 -11.617850 0.512972 -0.502562 -8.665778 -10.639591 11.395930 -3.240924 -0.061746 -21.240702 -1.266661 9.568713 -4.960199 2.110962 3.148539 0.000000 0.000000 0.000000 5.603032 -9.765055 0.190685 10.056611 -0.703022 0.243636 2.041718 3.748826 -0.047456 -0.153348 -1.906969 0.304847 0.000000 0.000000 0.000000 -8.808859 2.302314 1.280266 -8.489481 5.242826 -6.145261 9.812172 -5.084310 14.480138 0.000000 0.000000 0.000000 -9.151064 2.306596 0.919186 -1.082470 5.974072 -4.653511 1.717310 -1.823062 -0.587512 -5.975440 -0.445872 -68.637015 -0.023377 -18.690498 -0.147827 0.000000 0.000000 0.000000 -8.918164 1.999441 0.940410 -1.470255 -0.076045 5.696939 -2.659928 -1.815099 -1.015994 8.449634 11.274948 70.692280 -1.192001 24.069039 2.625338 0.000000 0.000000 0.000000 
0.071031 32.739735 0.567810 0.000000 0.000000 0.000000 5.042396 -12.809922 0.416110 -15.326600 9.480259 15.417347 22.476477 4.062345 -0.295659 -8.990960 7.239954 -14.757775 0.152155 -1.871173 -4.391469 0.000000 0.000000 0.000000 5.073084 -11.818333 0.619795 -1.170737 -8.987719 -11.128022 11.917673 -3.121546 -0.177385 -21.484078 -1.734722 9.719515 -4.735461 2.060884 2.755404 0.000000 0.000000 0.000000 5.640322 -10.295692 0.257539 10.175563 -0.912149 0.395120 2.128089 3.794405 -0.114449 -0.281663 -1.728398 0.331601 0.000000 0.000000 0.000000 -8.811502 2.297425 1.221830 -8.770407 3.899793 -5.917787 10.600416 -7.439770 15.705567 0.000000 0.000000 0.000000 -9.148907 2.294318 0.810905 -1.168899 6.072136 -4.541750 1.807392 -1.080493 -0.511813 -5.410530 0.059817 -68.709770 -0.031600 -19.174904 -0.139344 0.000000 0.000000 0.000000 -8.880428 2.002535 0.913763 -1.344232 -0.496394 5.844684 -2.134333 -0.732645 -1.622305 10.181242 12.491217 69.964749 -0.849486 25.008437 2.326064 0.000000 0.000000 0.000000 
0.467512 32.613388 0.670694 0.000000 0.000000 0.000000 4.976804 -13.301421 0.527408 -15.997246 9.943232 15.063723 23.522830 4.179799 -0.270375 -9.814300 7.091945 -14.737552 0.036007 -1.867317 -4.129031 0.000000 0.000000 0.000000 5.027764 -12.225946 0.716508 -1.882705 -9.143135 -11.718781 12.202697 -2.628457 -0.311163 -21.032077 -2.252330 10.806820 -5.668029 1.933178 2.277483 0.000000 0.000000 0.000000 5.855427 -10.960603 0.360504 10.346692 -1.140797 0.534554 2.235434 3.847216 -0.198417 -0.212691 -1.484354 0.452850 0.000000 0.000000 0.000000 -8.715273 2.334443 1.129081 -9.544334 1.899251 -5.602372 11.832045 -11.161333 17.124543 0.000000 0.000000 0.000000 -9.150319 2.277552 0.696869 -1.322500 6.005743 -4.346245 2.041929 -0.546363 -0.381210 -4.070674 0.609436 -68.748559 -0.049280 -20.470024 -0.208512 0.000000 0.000000 0.000000 -8.850830 2.019415 0.884700 -1.144538 -1.163234 6.066604 -1.745358 -0.287110 -2.113000 12.323002 13.922245 69.174892 -0.414179 26.103923 1.927307 0.000000 0.000000 0.000000 
